<svg xmlns="http://www.w3.org/2000/svg" id="Layer_1" enable-background="new 0 0 720 720" viewBox="0 0 720 720">
  <style>
    .st4{fill:#889fa9}.st5{fill:#ffe9dd}.st6{fill:#4c4c4c}.st8{fill:#90a9b3}.st9{fill:#ffcbc5}.st10{fill:#e9eeea}.st11{fill:#a08675}.st12{fill:#762c29}.st13{fill:#7a6356}.st15{fill:#9bd9c3}.st16{fill:#b78879}.st20{fill:#e0ada0}.st22{fill:#92ccb8}.st24{fill:#eff0f4}.st29{fill:#3b498c}.st30{fill:#f4bc8e}
  </style>
  <defs>
    <filter id="Adobe_OpacityMaskFilter" width="252.96" height="13.2" x="317.05" y="522.47" filterUnits="userSpaceOnUse">
      <feFlood flood-color="#fff" flood-opacity="1" result="back"/>
      <feBlend in="SourceGraphic" in2="back"/>
    </filter>
  </defs>
  <mask id="SVGID_1_" width="252.96" height="13.2" x="317.05" y="522.47" maskUnits="userSpaceOnUse">
    <g filter="url(#Adobe_OpacityMaskFilter)">
      <defs>
        <filter id="Adobe_OpacityMaskFilter_1_" width="252.96" height="13.2" x="317.05" y="522.47" filterUnits="userSpaceOnUse">
          <feFlood flood-color="#fff" flood-opacity="1" result="back"/>
          <feBlend in="SourceGraphic" in2="back"/>
        </filter>
      </defs>
      <linearGradient id="SVGID_2_" x1="317.045" x2="570.008" y1="529.064" y2="529.064" gradientUnits="userSpaceOnUse">
        <stop offset="0" stop-color="#fff"/>
        <stop offset="1"/>
      </linearGradient>
      <path fill="url(#SVGID_2_)" d="M324.87 525.08c-2.15.14-4.43.34-6.14 1.79-1.71 1.44-2.39 4.6-.78 6.17.86.83 2.07 1 3.21 1.11 16.54 1.7 33.18 1.57 49.79 1.44l70.66-.57c24.09-.19 48.19-.39 72.28-.58 12.82-.1 25.66-.21 38.41-1.68 6.41-.74 13.31-2.11 17.71-7.32-26.74-5.83-66.35-1.22-99.53-1.83-16.7-.31-33.39-.62-50.09-.92-13.36-.25-26.34 1.73-39.6 1.36-18.64-.51-37.3-.17-55.92 1.03z" mask="url(#SVGID_1_)"/>
    </g>
  </mask>
  <linearGradient id="SVGID_3_" x1="317.045" x2="570.008" y1="529.064" y2="529.064" gradientUnits="userSpaceOnUse">
    <stop offset="0"/>
    <stop offset="1"/>
  </linearGradient>
  <path fill="url(#SVGID_3_)" d="M324.87 525.08c-2.15.14-4.43.34-6.14 1.79-1.71 1.44-2.39 4.6-.78 6.17.86.83 2.07 1 3.21 1.11 16.54 1.7 33.18 1.57 49.79 1.44l70.66-.57c24.09-.19 48.19-.39 72.28-.58 12.82-.1 25.66-.21 38.41-1.68 6.41-.74 13.31-2.11 17.71-7.32-26.74-5.83-66.35-1.22-99.53-1.83-16.7-.31-33.39-.62-50.09-.92-13.36-.25-26.34 1.73-39.6 1.36-18.64-.51-37.3-.17-55.92 1.03z" opacity=".2"/>
  <path d="M436.23 146.12c13.14 11.81 16.95 30.48 24.14 46.62 2.87 6.44 6.36 12.58 9.84 18.7 1.49 2.62 3.03 5.3 5.39 7.17 2.22 1.77 4.99 2.69 7.74 3.4 8.35 2.17 6.86 1.4 15.47 1.97 11.18.73 2.85.02 14.03.76 1.29.08 2.62.18 3.79.75 2.01.99 3.13 3.28 3.33 5.52.2 2.24-2.06 8.46-2.62 10.64-.24.94-.52 1.95-1.28 2.56-.67.55-1.57.67-2.43.76-4.56.45-9.15.34-13.72.16-26.91-1-24.07-1.14-50.56-5.94-1.93-.35-2.22-4.73-3.87-5.8-1.97-1.28-3.22-3.39-4.27-5.49-5.85-11.74-7.28-25.1-10.29-37.87-1.94-8.24-4.56-16.31-7.18-24.37-1.38-4.25-5.99-12.6-3.58-17.1 2.67-4.99 12.24-5.88 16.07-2.44z" class="st4"/>
  <path d="M368.08 512.86c0 .21-.01.43-.13.6-.18.25-.52.3-.82.33-3.14.26-6.33-.05-9.36-.9-.22-.06-.45-.13-.62-.3-.18-.18-.25-.45-.3-.7-.5-2.37-.55-4.83-.14-7.21.04-.21.08-.44.24-.58.17-.16.43-.18.67-.19 2.43-.1 7.56-.78 9.72.5 1.91 1.12.79 6.46.74 8.45zM417.05 513.09c-.02.21-.06.45-.21.6-.19.2-.49.22-.76.22-3.12.07-6.24.09-9.35.06-.26 0-.55-.01-.76-.17-.26-.2-.33-.55-.37-.87-.33-2.39-.47-4.8-.42-7.22 2.96.05 5.92.11 8.88.16 2.01.04 2.63-.19 3.08 1.68.4 1.68.11 3.85-.09 5.54z" class="st5"/>
  <path d="M375.47 480.14c-.81 7.72-1.65 15.49-3.66 22.92-.36 1.33-.82 2.75-1.85 3.5-.89.65-2.02.66-3.07.64-2.7-.04-5.4-.07-8.1-.11-.97-.01-1.99-.04-2.84-.59-1.62-1.05-1.96-3.51-2.11-5.64-3.88-52.14-10.37-104.25-23.36-154.43-2.49-9.63-5.24-19.29-5.94-29.3-.7-10.01.88-20.62 6.26-28.57 7.5-11.06 20.66-14.8 32.9-15.58 6.22-.4 12.53-.21 18.62 1.36 7.13 1.83 6.2 4.97 5.98 12.74-.45 15.57-1.03 31.14-1.76 46.7-1.46 31.12-3.48 62.21-6.07 93.23-1.5 17.73-3.16 35.44-5 53.13z" class="st6"/>
  <path d="M402.66 502.94c.2 1.11.43 2.3 1.13 3.1.65.75 1.59 1.04 2.49 1.26a35.76 35.76 0 0 0 12.74.85c4.04-51.3 10.06-102.4 18.03-153.1 1.97-12.53 4.07-25.12 4.06-37.85 0-12.73-2.25-25.77-8.34-36.44-4.85-8.49-12.01-15.16-20.11-19.32-8.22-4.22-29.35-8.26-30.78 6.39-1.81 18.5-2 37.4-1.59 55.99.87 38.66 5.53 77.07 11.47 115.09 3.35 21.41 7.12 42.72 10.9 64.03z" class="st6"/>
  <path d="M351.14 139.77c-1.69.49-3.05 1.74-4.34 2.94l-6.24 5.82c-5.01 4.68-10.07 9.41-13.88 15.1-2.58 3.85-4.54 8.08-7.02 11.99-4.94 7.78-11.86 14.15-16.71 21.98-2.17 3.5-3.91 7.25-5.46 11.07-2.61 6.4-4.75 13.47-2.96 20.15.87 3.24 2.97 6.47 6.22 7.31 2.28.59 4.69-.11 6.82-1.1 5.78-2.69 10.3-7.48 14.25-12.49 16.64-21.1 25.23-46.95 36.94-70.82 1.28-2.61 3.41-5.24 1.61-8.01-1.78-2.74-5.99-4.89-9.23-3.94z" class="st4"/>
  <path fill="#cce4ea" d="M366.7 141.29c-1.65-.87-3.73-1.84-5.26-.75-.73.52-1.04 1.42-1.45 2.22-24.97 48.89-13.98 42.42-27.32 74.52-2.81 6.76-7.66 39.52-9.39 46.64-3.24 13.31-2.56 21.06-1.86 34.74.11 2.22.25 4.51 1.25 6.49 1.1 2.16 3.1 3.7 5.13 5.02 11.59 7.58 13.36 10.6 27.2 10.9 13.84.29 27.6 4.17 41.26 1.9 7.18-1.2 14.37-2.39 21.55-3.59 10.1-1.68 21.16-3.91 27.47-11.96 2.92-3.72 4.48-8.32 5.59-12.92 6.25-25.73.11-52.73-7.17-78.19-6.68-23.36-13.62-47.33-23.1-69.74-5.19-12.25-12.75-3.11-22.87-1.05-10.42 2.11-21.6.76-31.03-4.23z"/>
  <path d="M416.19 160.74c-1.11 3.43-2.22 6.89-2.8 10.55-.59 3.73-.61 7.57-.58 11.38.15 17.73 1.36 35.44 3.63 52.9.87 6.71.83 13.43 1.01 20.25.11 4.19.99 8.4 1.54 12.53.62 4.63-.34 12.39.69 16.89 2.82 12.26 2.12 23.55 4.75 35.89 3.08-2.51 5.55-3.24 7.81-3.44 2.25-.2 4.53-1.62 6.79-1.68 5.45-.14 10.73-4.49 13.33-10.97 2.5-6.22 2.53-13.66 2.38-20.74-.37-17.27-1.47-34.58-4.41-51.4-1.36-7.8-3.12-15.47-4.87-23.12l-12.48-54.46c-.88-3.83-3.83-21.16-8.56-18.74-1.88.96-3.34 9.04-4.11 11.43-1.38 4.23-2.75 8.48-4.12 12.73z" class="st8"/>
  <path d="M414.63 90.12c3.93 8.31 3.98 17.9 3.13 27.06-.27 2.89-.63 5.81-1.68 8.51-3.6 9.23-14.31 13.66-24.19 14.43-4.69.36-9.51.11-13.94-1.47-6.29-2.24-11.46-7.07-14.89-12.79-3.44-5.72-5.26-12.29-6.16-18.91-.68-4.98-.84-10.16.75-14.93 2.41-7.24 8.73-12.76 15.89-15.41 14.76-5.46 33.86-1.79 41.09 13.51z" class="st9"/>
  <path d="M414.99 156.95c-1.13 3.18-2.27 6.38-2.92 9.8-.73 3.82-.82 7.79-.87 11.73-.53 43.05 6.06 101.26 10.79 143.83 1.24-1.21 2.36-.33 4.2-2.4.35-6.88-3.72-28.9-5.03-35.57-4.8-24.46-1.3-50.75-5.53-75.4-.56-3.28-1.27-6.57-1.27-9.94 0-3.46.73-6.87.71-10.33-.03-4.63-1.41-9.17-1.07-13.78.34-4.59 2.32-8.59 3.84-12.72 1.82-4.93 5.83-17.4 3.51-22.62-2.65 5.09-4.35 11.76-6.36 17.4z" class="st10"/>
  <path d="M429.54 157.58c-2.56.91-5.12 1.83-7.68 2.74.2 5.34 1.17 10.63 2.84 15.49.14.42.3.86.25 1.32-.04.43-.26.79-.46 1.12-3.3 5.35-6.59 10.71-9.89 16.06-.73-9.87-1.44-20.08.82-29.52.96-4.03 2.44-7.76 3.82-11.54 1-2.72 1.93-8.78 3.43-10.73 5.21-6.78 4.7 15.84 6.87 15.06z" class="st11"/>
  <path d="M359.88 136.34c-4.88 15.33-18.55 30.78-20.26 46.45-.31 2.82-2.68 6.22-3.66 8.96-1.14 3.2-1.23 5.46-3.39 8.38-7.08 9.55-8.44 20.65-12.2 31.12-2.1 5.84-4.97 11.52-7 17.37-3.96 11.41-4.66 23.26-5.04 35.01-.2 6.19-.31 12.38-.34 18.57-.01 1.8 0 3.65.94 5.32.92 1.62 2.64 2.94 4.4 4.16 16.52 11.39 40.28 17.21 63.12 15.47.14-3.05.47-6.12 1.45-9.09.83-2.53 2.12-4.97 2.95-7.5 1.21-3.68 1.44-7.49 1.66-11.27.72-12.26 1.43-24.52 2.15-36.78.84-14.4 1.69-28.83 4.56-43.1.81-4.03 1.78-8.06 1.63-12.13-.12-3.29-.98-6.54-1.38-9.82-.77-6.27.12-12.64-1.29-18.85-1.83-8.06-7.42-15.39-9.25-23.44-1.72-7.53-8.31-15.21-19.05-18.83z" class="st8"/>
  <path d="M391.78 165.41c3.93 9.05 7.91 18.3 7.62 27.78-.14 4.72-1.35 9.38-2.3 14.05-2.44 11.92-3.26 23.97-4.08 36L388.67 307c-.19 2.84-3.61 15.42-5.68 17.85-2.07 2.43-4.53 1.61-8.08.32 3.98-22.13 7.17-51.58 9.26-73.85l5.31-56.5c.28-2.97.56-5.96.02-8.91-.69-3.78-2.69-7.37-4.43-10.97-4.78-9.91-9.14-21.05-10.54-31.49 12.32 4.1 13.58 13.5 17.25 21.96z" class="st10"/>
  <path d="M363.56 167.25c5.13 4 10.7 7.71 16.65 11.09-3.3 1.42-6.75 2.67-10.3 3.75 4.62 3.33 8.94 6.87 12.95 10.59 3.76 3.49 3.18 10.19 5.5 14.06 1.78-4.95 4.57-11.34 5.69-16.05 2.13-8.95-5.72-17.33-9.83-25.92-1.52-3.18-3.08-18.37-9.49-16.95-2.13.47-12.05 18.75-11.17 19.43zM428.91 270.7c-.6.57-1.24 1.2-1.47 2.14-.23.94.22 2.23.95 2.18 5.91-3.87 11.19-9.27 16.43-14.63 1.21-1.24 5.73-4.28 4.22-6.75-1.25-2.04-4.7 2.6-5.74 3.57-4.8 4.5-9.6 8.99-14.39 13.49zM338.57 260.13c-2.39-1.28-4.79-2.57-6.9-4.09-2.44-1.75-4.81-3.93-8.25-4.27.48 1.08-.84 2.16-.82 3.3.02 1.2 1.47 2.1 2.8 2.83 10.99 6.05 21.98 12.1 32.96 18.15 1.79.99 3.45 1.75 5.76 1.68 3.82-5.54-20.01-14.63-25.55-17.6z" class="st11"/>
  <path d="M295.14 223.57c1.54-2.49 4.57-3.61 7.45-4.12 7.18-1.27 14.64.22 21.39 3s12.9 6.8 19 10.8c6.38 4.17 12.75 8.34 19.13 12.52l4.12 2.71c1.51.28 2.49 1.89 2.57 3.43.08 1.54-.52 3.02-1.1 4.44-1.57 3.8-3.14 7.61-4.7 11.41-8.53-2.12-17.09-4.26-25.28-7.47-9.19-3.61-17.8-8.56-26.21-13.74-5.21-3.21-10.46-6.62-14.22-11.44-2.57-3.3-4.34-8-2.15-11.54z" class="st4"/>
  <path d="M379.53 253.91c1.33.18 2.72.39 3.77 1.23 1.05.83 1.55 2.51.68 3.53 2.31 1.26 5.22 1.35 7.22 3.06 1.56 1.33 2.27 3.49 2.1 5.54-.17 2.04-1.16 3.96-2.51 5.5-1.1 1.26-2.51 2.34-4.16 2.6-1.75.28-3.5-.39-5.15-1.04-4.25-1.68-8.49-3.37-12.74-5.05-2.57-1.02-5.54-2.55-5.79-5.31-.1-1.16.33-2.29.76-3.38.87-2.21 1.76-7.27 4.19-8.17 3.02-1.1 8.42 1.49 11.63 1.49z" class="st9"/>
  <path d="M436.82 520.84c-3.29-1.26-6.94-.84-10.46-.8-2.09.03-4.45-.21-5.79-1.81-1.13-1.35-1.21-3.27-1.08-5.02.03-.46.06-.98-.23-1.34-.31-.4-.88-.47-1.38-.51l-12.74-1.08c-.41-.03-.85-.06-1.18.18-.43.31-.47.93-.47 1.46-.03 5-.05 9.99-.07 14.99 0 .58 0 1.18.25 1.7.54 1.1 1.95 1.4 3.17 1.56 9.56 1.26 19.15 2.27 28.75 3.03 3.45.28 9.03.71 8-4.09-.8-3.67-3.23-6.91-6.77-8.27zM357.9 509.66c-.99-.02-2.14.03-2.74.82-.35.45-.42 1.05-.49 1.62l-.57 4.92c-.11.98-.25 2.02-.84 2.81-.59.78-1.54 1.2-2.48 1.47-2.64.75-5.44.58-8.18.78-2.74.2-5.64.89-7.48 2.93-1.33 1.47-1.94 3.48-2 5.46-.01.38 0 .79.18 1.13.35.64 1.17.84 1.89.93 2.19.27 4.4.21 6.61.14 4.51-.13 9.02-.27 13.53-.4 4.42-.13 8.87-.26 13.2-1.18.46-.1.97-.23 1.25-.62.2-.27.24-.62.28-.95.39-3.31.77-6.62 1.16-9.93.25-2.17 1.2-5.25-.02-7.29-2.16-3.58-9.9-2.64-13.3-2.64z" class="st12"/>
  <path d="M514.61 241.7c-.05.37-.09.77.12 1.07.2.27.55.38.87.47a78.84 78.84 0 0 0 25.86 2.42c1.97-.14 4.13-.46 5.42-1.96.66-.77 1-1.75 1.3-2.71.74-2.34 1.29-5.12-.19-7.07-1.06-1.4-2.9-1.97-4.65-2.19-1.75-.22-3.55-.19-5.21-.77-.44-.15-.9-.38-1.14-.78-.19-.33-.2-.74-.34-1.09-.45-1.16-1.98-1.37-3.23-1.39-3.95-.07-7.89-.13-11.84-.2-3.62-.06-3.35 1.82-4.31 4.49-1.13 3.18-2.16 6.32-2.66 9.71z" class="st9"/>
  <path d="M370.82 90.77c.38-1.75.86-3.53 1.96-4.97 2.05-2.69 5.72-3.61 9.11-4.28 3.75-.74 7.86-1.35 11.24.38.45.23.89.5 1.39.56.61.08 1.21-.17 1.79-.39 7.09-2.63 14.85 2.56 19.67 11.39-.05-2.02 2.22-7.13-1.19-11.43s-7.89-7.83-13.18-9.68c-5.29-1.85-10.95-2.46-16.55-2.88-3.71-.28-7.48-.47-11.12.25-5.24 1.05-9.96 3.99-13.52 7.84-3.56 3.85-6.02 8.57-7.63 13.5-.78 2.38-1.37 4.84-1.4 7.33-.03 2.51.51 5.01 1.2 7.43 1.24 4.35 2.97 8.57 5.15 12.55.21.38.43.76.78 1.02.5.35 1.16.37 1.78.37 3.04.01 6.44-.24 8.49-2.41.4-.43.75-.98.67-1.55-.28-2.1-3.9-1.69-4.06-4.36-.14-2.41 1.87-2.47 3.2-3.78 1.77-1.75.94-4.55 1-6.86.1-3.35.51-6.72 1.22-10.03z" class="st13"/>
  <path fill="#d8d0cb" d="M414.19 125.72a9.328 9.328 0 0 1-3.79 3.39c-.89.43-1.87.74-2.72 1.24-.05-.88-.07-1.77-.16-2.64-.14-1.39-.36-2.84-1.16-3.99-.55-.78-1.34-1.36-2.19-1.78-2.64-1.31-5.76-1.12-8.65-.57-2.06.4-4.22 1.05-5.55 2.66-.66.8-1.06 1.78-1.42 2.75-.47 1.25-.89 2.53-1.1 3.85-.2 1.22-.19 2.46-.15 3.69-4.08-.87-8.07-2.16-11.88-3.86-1.41-.63-2.84-1.35-3.79-2.56-.81-1.04-1.19-2.33-1.65-3.56-.47-1.24-1.04-2.43-1.71-3.57-.33-.57-.7-1.14-1.2-1.57-1.29-1.12-3.13-1.1-4.73-.94-1.83.18-2.52.34-2.17 2.33.57 3.22 3.04 5.7 4.47 8.54 1.99 3.95 5.38 7.14 9.34 9.11 3.96 1.98 8.46 2.77 12.88 2.56.26-.01.53-.05.79-.1.57 1.12 2.24 1.63 3.39 1.8 1.39.21 2.8.06 4.2-.09 1.74-.18 3.49-.37 5.23-.55 1.62-.17 3.33-.37 4.66-1.31 1.32-.93 2.01-2.38 2.36-3.98.78-.47 1.58-1.22 2.15-1.59 1.21-.77 2.45-1.51 3.49-2.5 2.55-2.42 3.63-6.09 3.52-9.6-1.2.42-1.77 1.75-2.46 2.84zm-17.03 6.93c-1.08.1-2.2.12-3.24-.21-1.04-.33-1.99-1.06-2.35-2.09-.29-.83-.09-2.27.83-2.65.94-.4 2.59.52 3.6.58 1.81.12 3.61-.32 5.33-.91.74-.25 1.49-.54 2.27-.58.78-.04 1.63.23 2.07.88.61.9.21 2.2-.6 2.92-.81.72-1.91 1-2.97 1.24-1.63.35-3.28.67-4.94.82z"/>
  <g>
    <path d="M472.72 515.01c-.65.99-1.59 1.75-2.57 2.41-2.74 1.86-5.86 3.08-8.87 4.46a80.697 80.697 0 0 0-8.36 4.46c-.83.51-1.68 1.06-2.16 1.91-.58 1.02-.5 2.28-.4 3.45.04.51.09 1.04.37 1.47.45.68 1.34.89 2.15.96 3.46.29 6.83-.96 10.2-1.77 7.06-1.7 14.43-1.49 21.59-2.7 1.01-.17 2.1-.42 2.74-1.22.55-.7.63-1.65.66-2.54.29-6.97-.24-13.97-1.57-20.82-2.18.32-4.37.63-6.55.95-1.31.19-3.11.19-4.28.93-2.45 1.56-1.43 5.73-2.95 8.05zM518.3 504.14c-.54.04-1.09.08-1.56.33-.83.44-1.23 1.4-1.44 2.32-.92 4.1.7 8.74-1.35 12.41-1.6 2.86-9.16 4.82-12.15 6.15-3 1.33-6.2 3.22-6.98 6.4-.08.34-.13.72 0 1.04.26.61 1.03.78 1.69.85 2.75.27 9.76-.54 12.52-.72 5.55-.36 11.1-.76 16.64-1.19 1.32-.1 2.73-.25 3.72-1.12 1.21-1.07 1.39-2.87 1.44-4.49.17-5.68-.22-11.37-1.15-16.97-.37-2.21-.08-5.57-2.73-5.6-2.85-.04-5.8.4-8.65.59z" class="st13"/>
    <path d="M535.33 327.26c-7.01 48.87-6.57 98.33-4.87 147.67.22 6.53.97 11.87 1.19 19.43.05 1.76-.68 3.39-2.44 3.5l-13.31.6c-1.48.09-3.16.11-4.21-.94-.81-.81-1-2.04-1.14-3.18-5.57-44.1-5.45-88.79-16.04-132.12-3.49-14.27-6.08-28.75-7.29-43.39-.45-5.52-.62-11.15.76-16.51 2.35-9.14 9.41-16.93 18.27-20.18 8.03-2.94 23.55-2.66 28.85 5.37 6.44 9.77 1.74 29.24.23 39.75z" class="st15"/>
    <path d="M457.66 302.37c.48 64.3 2.31 128.63 10.98 192.34.21 1.54.55 3.29 1.88 4.1.8.49 1.79.51 2.73.52 2.19.02 8.82-.02 11.01 0 1.02.01 2.08.02 3.04-.34 3.05-1.13 3.7-5.08 3.88-8.32 2.56-46 6.24-91.85 14.31-137.21 1.53-8.57 3.15-17.13 5.18-25.6 2.59-10.82 5.84-21.65 5.82-32.77-.01-2.69-.22-5.45-1.37-7.89-1.06-2.27-2.87-4.12-4.82-5.69-6.67-5.4-15.24-8.04-23.78-8.86-5.78-.56-21.84-2.46-25.89 2.28-4.71 5.53-3.02 20.7-2.97 27.44z" class="st15"/>
    <path d="M452.63 297.76c-.03.28-.05.59.12.82.18.25.53.35.85.43 2.43.61 4.86 1.23 7.29 1.84 3.88.98 7.87 1.95 11.89 1.66 1.28-.09 2.6-.33 3.65-1 1.06-.66 1.8-1.84 1.58-2.98-.25-1.3-1.65-2.2-3.07-2.54-1.42-.34-2.91-.27-4.36-.45-2.94-.36-5.61-1.72-8.42-2.59-2.06-.63-4.42-1.01-6.55-.45-2.69.7-2.73 3-2.98 5.26z" class="st6"/>
    <path d="M471.46 302.28a32.57 32.57 0 0 1 5.49 5.32c.87 1.08 1.68 2.21 2.75 3.13 2.09 1.79 5.16 2.59 7.98 2.08 1.98-.36 3.91-1.42 4.72-3.09 1.28-2.64-.56-5.66-2.7-7.8-3.96-3.96-9.21-6.85-14.92-8.22-.61-.15-1.23-.28-1.85-.24-1.96.1-4.3 2.26-4.67 3.99-.44 2.04 1.68 3.67 3.2 4.83z" class="st6"/>
    <path d="M483.93 170.46a96.999 96.999 0 0 1-15.7 28.35c-2.08 2.6-4.43 5.49-4.15 8.8.35 4.17 5.1 6.93 9.24 6.36 4.15-.57 7.57-3.58 10.08-6.93 4.59-6.15 6.91-13.65 9.15-20.99l2.88-9.45c.86-2.83 1.74-5.79 1.24-8.72-.51-2.97-3.43-6.56-6.77-5.89-3.38.71-5.01 5.73-5.97 8.47z" class="st16"/>
    <path fill="#ee9248" d="M532.37 158.4c-.61 3.55 2.47 6.7 5.71 8.27 3.24 1.57 6.93 2.3 9.76 4.53 3.54 2.8 5.05 7.47 5.58 11.95 1.02 8.52-.79 17.1-2.82 25.44-5.9 24.23-13.81 48.71-11.37 73.53.11 1.13.24 2.31-.2 3.35-.31.73-.87 1.33-1.47 1.86-5.52 4.93-13.73 4.93-21.12 4.62-10.15-.43-20.3-.95-30.44-1.54-9.28-.55-18.68-1.18-27.51-4.11-2.51-.83-5.16-2.03-6.32-4.4-1.12-2.29-.52-5 .14-7.46a194.48 194.48 0 0 1 21.52-50.25c2.98-4.91 6.2-9.7 8.69-14.88 6.57-13.62 7.85-29.35 5.96-44.35-.16-1.24-.32-2.57.22-3.7.43-.91 1.27-1.56 2.11-2.11 5.77-3.83 12.23-4.7 18.65-2.55 2.16.73 22.28 5.46 22.91 1.8z"/>
    <path fill="#417183" d="M470.57 291.81c-.77 2.18-1.79 4.62-4.14 5.5-1.52.57-3.25.32-4.87.06-2.6-.41-5.2-.82-7.8-1.24-1.73-.27-3.7-.7-4.49-2.12-1.04-1.86.65-3.94 1.97-5.65 3.78-4.87 5.14-10.9 6.41-16.74 1.58-7.25 3.16-14.58 2.81-21.96-.23-4.79-1.24-9.81.78-14.25 1.71-3.75 5.4-6.52 9.46-8.23 2.59-1.09 7.04-2.88 9.96-2.71 3.82.22 3.25 1.73 3.4 5.16.29 6.94-.31 13.88-1.48 20.74-2.41 14.15-7.21 27.85-12.01 41.44z"/>
    <path fill="#3a6576" d="M442.21 247.71c3.67 3.98 9.03 6.53 12.44 10.7 2.03 2.49 3.26 5.43 4.46 8.33 4.13 9.99 8.33 20.45 6.95 31.04-.11.86-.21 1.85.47 2.45.48.42 1.2.51 1.86.58 4.05.4 8.41.74 11.94-1.09 4.78-2.48 6.33-8.08 6.2-13.06a30.52 30.52 0 0 0-1.09-7.35c-2.96-10.82-11.76-20.34-11.66-31.48.05-5.27 1.89-11.3-1.92-15.29-1.76-1.84-4.38-2.78-6.95-3.48-5.39-1.49-21.42-5.28-25.94-.89-4.78 4.64-.43 15.55 3.24 19.54z"/>
    <path d="M543.22 100.77c1.9 4.14 2.27 8.63 2.4 13.05.31 10.46-.67 21.28-6.45 30.64-3.27 5.3-8.67 10.29-15.87 11.28-6.62.9-13.41-1.9-17.74-6.06-4.33-4.16-6.56-9.49-8.04-14.81-2.47-8.88-3.05-18.35.66-26.94 6.85-15.9 35.34-28.25 45.04-7.16z" class="st16"/>
    <path d="M471.28 166.26c2.06-4.28 3.46-8.99 2.89-13.72-1.06-8.88-9.85-16.63-19.51-17.19-1.63-.1-3.31 0-4.77.64-2.76 1.21-4.11 4.04-5.25 6.65-2.96 6.77-5.9 14.52-2.44 21.26 2.26 4.41 9.07 10.02 14.29 11.36 6.88 1.76 12.35-3.92 14.79-9z" class="st20"/>
    <path fill="#f2f3f7" d="M463.31 175.96c2.92-.79 5.92-2.18 8.86-1.45 4.01 1 5.5 5.25 6.29 8.87 2.56 11.85 4.32 23.84 5.25 35.88.15 1.95.28 3.94-.2 5.85-.55 2.2-1.86 4.19-3.27 6.07-1.36 1.81-2.88 3.6-4.98 4.74-3.79 2.07-8.62 1.6-13.01.92a202.59 202.59 0 0 1-22.87-4.91c-.95-.26-1.96-.57-2.52-1.3-.7-.9-.47-2.09-.45-3.18.05-3.1-1.85-5.96-2.44-9.02-.57-2.91.06-5.89.76-8.77 2.25-9.33 4.99-18.86 8.99-27.74 4.05-8.97 11.07-3.66 19.59-5.96z"/>
    <path d="M451.61 245.84c1.36 1.95 1.61 4.75.25 6.7-1.45 2.07-4.19 2.71-6.69 2.98-1.86.2-3.95.21-5.35-1.04-1.19-1.06-1.54-2.73-2.1-4.22-1.53-4.09-2.84-7.89 2.43-8.42 3.88-.39 9.1.62 11.46 4z" class="st16"/>
    <path d="M528.76 195.87c1.69-6.06 3.4-12.17 6.39-17.7.98-1.81 2.14-3.6 3.87-4.71 4.45-2.87 10.8.21 13.16 4.95 2.36 4.74 1.79 10.36.87 15.57a142.347 142.347 0 0 1-19.92 51.45c-.72 1.14-1.48 2.3-2.56 3.12-1.5 1.15-3.43 1.54-5.29 1.89-14.37 2.72-28.8 5.16-43.26 7.32-4.85.72-9.73 1.42-14.63 1.27a42.702 42.702 0 0 1-17.86-4.54c-2.37-1.19-4.9-3.04-5-5.69-.1-2.59 2.41-4.75 4.99-5s5.1.97 7.18 2.53c1.07.8 2.11 1.73 3.39 2.12 1.77.55 3.67 0 5.44-.54 15.32-4.71 30.64-9.43 45.97-14.14 2.79-.86 6.14-1.16 7.72-3.55 1.78-2.7 2.15-7.85 3.03-11l6.51-23.35z" class="st16"/>
    <path d="M470.98 503.62a4.864 4.864 0 0 0 3.42 3.3c.84.22 1.74.23 2.62.22 2.67-.04 5.34-.29 7.95-.75.62-.11 1.28-.25 1.7-.62.39-.35.49-.83.56-1.29.29-1.81.41-3.63.34-5.45-.01-.18-.02-.37-.11-.54-.29-.56-1.23-.66-2.01-.68-3.98-.06-8.09.05-12.02.58-3.28.44-3.11 3-2.45 5.23zM513.56 502.41c.19.75.49 1.54 1.24 2.05.68.46 1.61.62 2.51.73 3.24.41 6.57.43 9.83.06 1.02-.12 2.15-.33 2.72-.99.3-.35.39-.78.46-1.2.23-1.56.13-3.14-.28-4.67-.09-.33-.21-.68-.52-.93-.41-.32-1.04-.39-1.63-.43-3.85-.29-8.43-.69-12.25-.07-3.41.53-2.61 3.41-2.08 5.45z" class="st22"/>
    <path d="M475.72 501.5c-.1-.57-1.26-.59-1.18 0 .14.97.21 1.95.41 2.92.11.55 1.31.42 1.25-.13-.09-.94-.32-1.86-.48-2.79zM480.1 501.85c-.11-.89-1.87-.93-1.83 0 .05 1.08.05 2.15.25 3.21.16.84 1.84.6 1.86-.19.02-1.01-.16-2.02-.28-3.02zM484.91 503.04c-.3-1.13-.55-2.25-.74-3.4-.1-.63-1.36-.66-1.3 0 .11 1.21.14 2.39.12 3.6-.02 1.08 2.21.92 1.92-.2zM518.18 498.4c-.06-.7-1.46-.72-1.45 0 .01 1.12.07 2.25-.01 3.36-.06.88 1.91.85 1.77 0-.18-1.11-.22-2.24-.31-3.36zM523.52 498.28c-.09-.85-1.83-.87-1.77 0 .1 1.4.26 2.79.5 4.18.18 1.05 2.12.87 1.89-.19a45.27 45.27 0 0 1-.62-3.99zM528.69 499.09c-.13-.82-1.8-.87-1.74 0 .08 1.11.18 2.25.52 3.33.3.94 2.04.52 1.86-.39-.2-.98-.48-1.94-.64-2.94z" class="st15"/>
    <path fill="#352d20" d="M474.93 143.33c-.78-4.1-2-8.6-5.54-10.8-1.33-.83-2.87-1.24-4.41-1.57-3.95-.84-8.02-1.14-12.05-.92-4.43.25-9.2 1.36-12.03 4.78-1.6 1.94-2.41 4.43-2.71 6.93-.3 2.5-.11 5.02.07 7.53.09 1.22.41 2.73 1.59 3.03 1.14.29 2.12-.78 2.81-1.73 1.11-1.55 2.23-3.1 3.34-4.65l.5-1.39c.02.81.13 1.64.31 2.4.41 1.85.66 4.14-.84 5.3 1.64-.37 2.13-2.42 2.29-4.09.15-1.46.29-2.93.44-4.39a17.63 17.63 0 0 0 2.32 4.63c.17-1.02-.13-2.09.11-3.1.35-1.49 2.01-2.54 3.51-2.22 1.42.3 2.42 1.58 3.76 2.15 1.61.69 3.53.29 5.12 1 1.99.89 2.91 3.24 3.1 5.41.19 2.17-.14 4.39.27 6.53.54-.51 1.11-1.03 1.81-1.27.7-.25 1.58-.14 2.04.45.75.95-.04 2.34.11 3.54.07.61.4 1.17.53 1.78.55 2.43-1.97 4.93-1.04 7.24.23-1.25.75-2.45 1.51-3.48.49-.66 1.07-1.25 1.49-1.94.48-.79.75-1.69.99-2.58.97-3.57 1.63-7.25 1.54-10.95-.05-2.57-.47-5.11-.94-7.62z"/>
    <path d="M425.16 172.54c3.89 6.9 8.26 14.87 15.84 17.17.73.22 1.53.42 2.25.15.8-.3 1.38-.8 2.12-1.24 1.8-1.07 4.62-4.45 4.72-7.44.02-.64.04-1.25 0-1.89-.09-1.35-1.57-2.08-2.8-2.64-10.1-4.61-16.23-15.41-18.24-26.33-.16-.84-.35-1.78-1.06-2.26-.36-.24-.81-.32-1.24-.37-1.82-.22-5.29-.47-6.65 1.14-1.37 1.63-.29 4.96-.03 6.82.82 5.84 2.17 11.71 5.09 16.89zM479.81 168.13c2.62-3.31 4.59-7.1 6.19-11 1.74-4.25 3.08-8.83 2.49-13.38 2.44-.27 4.9-.4 7.36-.39.43 0 .9.02 1.22.31.22.2.32.49.4.78.54 1.91.31 3.94.08 5.91-.22 1.85-.43 3.7-.65 5.54-.26 2.23-.52 4.47-1.05 6.65-1.09 4.5-3.3 8.66-5.97 12.44-2.67 3.78-5.81 7.19-8.96 10.59-.81.87-1.86 1.82-3.01 1.53-.53-.13-.95-.51-1.35-.87-1.55-1.4-3.12-2.81-4.31-4.53-.93-1.33-1.7-2.96-1.81-4.61-.1-1.52.96-1.71 2.14-2.43 2.79-1.7 5.21-3.98 7.23-6.54z" class="st24"/>
    <path d="M425.73 145.4c1.37-1.3 2.1-3.21 2.1-5.1 0-.69-.19-1.51-.83-1.75-.16-.06-.33-.07-.47-.15-.34-.19-.42-.63-.49-1.01-.09-.55-.23-1.1-.4-1.63-.22-.68-.53-1.38-1.1-1.81-.46-.35-1.04-.51-1.61-.65-.93-.23-1.93-.46-2.82-.12-1.09.42-1.7 1.59-2.04 2.71-.18.59-.31 1.2-.35 1.82-.05.75.05 1.49.14 2.23.24 1.92.5 3.89 1.35 5.65.3.62.62 1.32 1.35 1.46.72.14 1.67.02 2.37-.14 1.04-.24 2.02-.77 2.8-1.51zM491.53 142.8c-.81.08-1.67.11-2.36-.32-.56-.35-.9-.94-1.19-1.53-.76-1.58-1.23-3.29-1.39-5.04-.03-.4.01-.9.38-1.04.15-.06.33-.04.49-.06.63-.08.99-.77 1.13-1.39.29-1.23.22-2.61.99-3.61.64-.82 1.73-1.17 2.77-1.15s2.04.35 3.02.68c.2.07.4.14.54.29.13.14.19.33.24.51.66 2.24.95 4.59.87 6.92-.05 1.5.13 4.39-1.58 4.99-1.23.43-2.61.62-3.91.75z" class="st20"/>
    <path d="M537.13 128.29c-.09.18-.15.38-.12.6l.12-.6z" class="st11"/>
    <path fill="#382c1b" d="M569.3 159.69c-.48-.5-.86-1.14-.85-1.84.05-2.28 3.61-2.41 5.02-4.2.99-1.25.69-3.14-.19-4.48-.88-1.33-2.21-2.28-3.4-3.35-4.07-3.67-6.48-8.91-7.57-14.28-1.09-5.37-.96-10.91-.63-16.38.33-5.38.84-10.86-.46-16.09-1.86-7.45-7.58-13.83-14.78-16.49-6.17-2.28-12.96-1.89-19.52-1.33-6.87.6-13.89 1.41-20.07 4.46-6.65 3.29-12.25 9.9-11.93 17.31.06 1.34.33 2.73 1.19 3.76.8.95 1.99 1.47 3.16 1.89 5.97 2.14 12.57 2.48 18.74.98 1.66 2.08 4.08 3.56 6.72 3.95 3.03.44 6.33-.42 9.07.96 2.36 1.19 3.69 3.84 4 6.47.29 2.42-.17 4.85-.68 7.24.43-.9 2-1.21 2.78-.42.94.95.76 2.6.01 3.71-.74 1.11-1.9 1.87-2.93 2.73-1.03.86-1.99 1.97-2.09 3.31-.07.96.32 1.88.58 2.81.75 2.77.22 5.86-1.43 8.22-2.01 2.88-5.37 4.47-7.88 6.93-2.51 2.45-4 6.83-1.53 9.34 1.68 1.71 4.44 1.71 6.78 1.2s4.68-1.42 7.06-1.14c2.37.28 4.43 1.72 6.29 3.21 1.86 1.5 3.68 3.14 5.91 3.98 2.23.84 5.05.67 6.64-1.11.55-.61.93-1.37 1.57-1.87 1.32-1 3.24-.55 4.7.24 1.46.78 2.84 1.87 4.49 2.06 2.08.24 4.04-1.03 5.5-2.52 1.09-1.1 2.07-2.56 1.8-4.08-.47-2.68-4.16-3.2-6.07-5.18z"/>
  </g>
  <path fill="#e5e5e5" d="M256.47 632.99c0 9.82-49.68 17.78-110.96 17.78-61.28 0-110.96-7.96-110.96-17.78s49.68-17.78 110.96-17.78c61.29 0 110.96 7.96 110.96 17.78z"/>
  <g>
    <path fill="#777" d="M306.83 132.3v29.45c0 .87-.74 1.58-1.65 1.58H293c-.91 0-1.66-.71-1.66-1.58V132.3c0-.88.75-1.59 1.66-1.59h12.18c.92-.01 1.65.7 1.65 1.59z"/>
    <path fill="#5b5959" d="M307.81 150.25v14.26c0 1.03-.83 1.86-1.86 1.86h-13.71c-1.03 0-1.86-.83-1.86-1.86V129.9c0-1.03.83-1.86 1.86-1.86h13.71c1.03 0 1.86.83 1.86 1.86v20.35zm-.98 11.5V132.3c0-.88-.74-1.59-1.65-1.59H293c-.91 0-1.66.71-1.66 1.59v29.45c0 .87.75 1.58 1.66 1.58h12.18c.92 0 1.65-.71 1.65-1.58z"/>
    <path d="M211.55 621.27c-.56 2.32-1.45 6.04-2.22 9.58-13.12 3.15-43.55 3.23-51 3.2-.92-.01-1.61-.96-1.47-2.04.78-5.88 3.47-18.61 3.47-18.61h21.25v.12s8.37 2.6 13.57 5.19c4.53 2.26 13.12 1.73 16.4 2.56z" class="st29"/>
    <path d="M274.19 627.11c2.16 1.5 1.84 7.33 1.84 7.33-8.94 4.9-55.95 5.01-66.23 4.98a1.75 1.75 0 0 1-1.74-2.04c.27-1.76.75-4.1 1.27-6.54.78-3.54 1.66-7.26 2.22-9.58.35-1.45.58-2.36.58-2.36h28.12s7.06 2.59 13.21 5.17c6.15 2.6 18.58 1.52 20.73 3.04z" class="st29"/>
    <path d="M258.44 147.87c.48 8.33-3.48 28.98-5.43 32.95-1.94 3.97-5.19 2.34-6.65 3.64-1.45 1.29-2.21 8.24-2.21 8.24-1.67-.8-3.03-1.49-3.9-1.96-4.84-2.63-23.33-4.26-32.89-4.34 0 0 2.59-5.83 3.23-9.39.07-.35.09-.71.11-1.11h.01c5.2 5.2 19.95 3.78 25.38-1.23 5.43-5.02 3.08-7.37 3.74-13.12.66-5.75 1.77-7.29 5.41-9.63 3.64-2.34 3.81 5.27 3.81 5.27s1.86-1.86 2.34-3.89c.48-2.02-.24-10.36-.24-10.36s1.54-3.64 1.54-9.23-5.02-10.04-5.02-10.04l4.05-1.06s.32.4 3.24 4.37c2.9 3.97 2.98 12.55 3.48 20.89z" class="st30"/>
    <path fill="#e5a576" d="M314.34 166.13c.32 1.73-1.88 5.61-3.95 9.07-2.09 3.46-7.38 7.34-7.38 7.34l-.46.07c-.31-2.41-.67-5.59-.8-7.78-.24-3.97-1.3-3.32-2.18-3.32-.9 0-2.36 9.15-2.6 12.06-.08.91.04 2.73.21 4.81l-18.68 22.99c-.84-.96-1.5-1.67-1.93-2.06-1.62-1.47-7.48-4.53-14.08-7.77 0 0 22.07-19.52 22.82-21.25.76-1.73 1.09-9.18.44-12.1-.66-2.91 1.5-16.72 4.64-17.91v14.24c0 1.03.83 1.86 1.86 1.86h13.71c1.03 0 1.86-.83 1.86-1.86v-14.26c.38-.05 3-.39 3.51 1.31.54 1.84-.59 3.56-.94 3.89-.36.32 2.88.86 2.99 2.59.11 1.73-1.94 4.97-1.94 4.97s2.57 1.4 2.9 3.11z"/>
    <path d="M297.17 188.37c-.17-2.08-.29-3.9-.21-4.81.24-2.91 1.7-12.06 2.6-12.06.88 0 1.94-.64 2.18 3.32.13 2.2.5 5.37.8 7.78.24 1.94.44 3.39.46 3.39.03 0 5.13-.74 5.61.4.48 1.13 1.86 2.67 1.86 2.67s7.61 1.14 9.31 7.29-1.54 19.99-1.54 19.99 15.14 44.77 13.04 55.28c-2.1 10.53-11.01 14.08-14.23 13.14-.52-.16-27.78-18.28-27.78-18.28 1.41-.96 2.96-2.13 4.56-3.44 3.86-3.19 6.75-11.95 8.17-17.11l8.95 6.1-6.23-33.67s-4.85-4.21-6.47-7.61c-1.62-3.4-2.26-12.14-2.26-12.14s.88-1.3 1.29-1.06c.42.25 1.14 1.38 1.14 1.38s-.82-5.92-1.25-10.56z" class="st30"/>
    <path fill="#f7a454" d="M253.81 109.17c7.13 4.62-2.1 13.44-2.1 13.44l-4.05 1.06s5.02 4.45 5.02 10.04c0 5.59-1.54 9.23-1.54 9.23s.72 8.33.24 10.36c-.48 2.02-2.34 3.89-2.34 3.89s-.16-7.61-3.81-5.27c-3.64 2.34-4.76 3.89-5.41 9.63-.66 5.75 1.69 8.09-3.74 13.12-5.43 5.01-20.18 6.43-25.38 1.23h-.01c.15-3.58-1.71-8.9-4.56-16.13-3.16-8.01-5.51-25.18-5.51-31.73 0-6.55 3.08-8.01 3-8.41-.08-.42 1.37-4.78 8.98-11.01 7.62-6.24 34.1-4.06 41.21.55z"/>
    <path fill="#9fb8c8" d="M303 242.01s-.35 1.59-.99 3.94c-1.42 5.16-4.31 13.92-8.17 17.11a63.492 63.492 0 0 1-4.56 3.44c-3.54 2.47-6.14 3.79-6.14 3.79l-9.93-4.76s-2.48 24.4-2.59 27.84c-.11 3.46 4.64 35.19 5.51 42.21.86 7.01.75 21.69.75 21.69s-.58.05-1.61.15c-8.21.72-45.61 3.94-58.83 3.85-11.72-.08-24.33-2.45-29.16-3.44-1.3-.27-2.04-.44-2.04-.44s-.86-76.63-4.31-94.65c-2.79-14.58-6.78-43.45-2.22-60.66 1.54-5.84 5.99-10.46 11.74-12.35 4.15-1.37 9.26-2.85 12.5-3.19 1.02-.11 2.55-.15 4.41-.13 9.57.08 28.06 1.71 32.89 4.34.87.47 2.22 1.15 3.9 1.96 4.66 2.28 11.86 5.65 18.33 8.83 6.61 3.24 12.46 6.3 14.08 7.77.43.39 1.09 1.1 1.93 2.06 6.66 7.59 24.51 30.64 24.51 30.64z"/>
    <path fill="#373e60" d="M275.28 357.43s5.17 62.99-1.63 102.49c-6.79 39.51-33.39 158.99-33.39 158.99h-28.12l15.22-120.13-1.14-49.86-44.09 164.48h-21.8l26.96-200.1v-55.47c4.82.99 17.43 3.36 29.16 3.44 13.22.1 50.61-3.12 58.83-3.84z"/>
    <path fill="#22273f" d="M223.34 409.55L175.13 613.4h7l44.08-164.48z"/>
    <path fill="none" stroke="#83a1b2" stroke-linecap="round" stroke-miterlimit="10" stroke-width=".75" d="M268.94 212.81s-13.85 8.73-14.07 20.89c-.22 12.16 10.94 24 10.94 24"/>
    <path fill="#83a1b2" d="M283.14 270.29s2.6-1.33 6.14-3.79c.25-.17.52-.38.78-.56-5.13-2.76-24.07-13.07-25.81-15.39l-2.01-2.68s.19 6.45 5.58 12.06c0 0-5.58 32.83-.67 60.52 3.08 17.36 6.23 29.97 8.15 36.97l1.58-.14s.11-14.69-.75-21.69c-.87-7.02-5.61-38.75-5.51-42.21.11-3.44 2.59-27.84 2.59-27.84l9.93 4.75z"/>
    <path fill="none" stroke="#22273f" stroke-linecap="round" stroke-miterlimit="10" stroke-width=".75" d="M225.06 442.49c0-6.2-2.25-47.45-6.31-51.03-4.07-3.57-12.06-3.57-18.11-14.29"/>
  </g>
</svg>
